Nunito-SemiBold.ufo
<glyph name="asterisk" format="1">
  <advance width="1046"/>
  <unicode hex="002A"/>
  <outline>
    <contour>
      <point x="422" y="800" type="curve" smooth="yes"/>
      <point x="521" y="981" type="line"/>
      <point x="623" y="800" type="line" smooth="yes"/>
      <point x="671" y="713"/>
      <point x="786" y="783"/>
      <point x="733" y="874" type="curve" smooth="yes"/>
      <point x="631" y="1040" type="line"/>
      <point x="849" y="1033" type="line" smooth="yes"/>
      <point x="939" y="1033"/>
      <point x="939" y="1164"/>
      <point x="849" y="1164" type="curve" smooth="yes"/>
      <point x="632" y="1157" type="line"/>
      <point x="740" y="1331" type="line" smooth="yes"/>
      <point x="786" y="1408"/>
      <point x="680" y="1489"/>
      <point x="624" y="1397" type="curve"/>
      <point x="521" y="1211" type="line"/>
      <point x="418" y="1401" type="line" smooth="yes"/>
      <point x="371" y="1483"/>
      <point x="254" y="1412"/>
      <point x="306" y="1327" type="curve" smooth="yes"/>
      <point x="411" y="1157" type="line"/>
      <point x="197" y="1164" type="line" smooth="yes"/>
      <point x="107" y="1164"/>
      <point x="108" y="1033"/>
      <point x="197" y="1033" type="curve" smooth="yes"/>
      <point x="413" y="1040" type="line"/>
      <point x="306" y="866" type="line" smooth="yes"/>
      <point x="256" y="787"/>
      <point x="371" y="709"/>
    </contour>
  </outline>
</glyph>
<glyph name="zero" format="1">
  <advance width="1218"/>
  <unicode hex="0030"/>
  <outline>
    <contour>
      <point x="609" y="-22" type="curve" smooth="yes"/>
      <point x="1014" y="-22"/>
      <point x="1132" y="347"/>
      <point x="1132" y="729" type="curve" smooth="yes"/>
      <point x="1132" y="1115"/>
      <point x="1013" y="1472"/>
      <point x="609" y="1472" type="curve" smooth="yes"/>
      <point x="204" y="1472"/>
      <point x="85" y="1115"/>
      <point x="85" y="729" type="curve" smooth="yes"/>
      <point x="85" y="347"/>
      <point x="203" y="-22"/>
    </contour>
    <contour>
      <point x="609" y="176" type="curve" smooth="yes"/>
      <point x="367" y="176"/>
      <point x="335" y="475"/>
      <point x="335" y="729" type="curve" smooth="yes"/>
      <point x="335" y="987"/>
      <point x="367" y="1274"/>
      <point x="609" y="1274" type="curve" smooth="yes"/>
      <point x="851" y="1274"/>
      <point x="883" y="986"/>
      <point x="883" y="729" type="curve" smooth="yes"/>
      <point x="883" y="476"/>
      <point x="851" y="176"/>
    </contour>
  </outline>
</glyph>
<glyph name="two" format="1">
  <advance width="1216"/>
  <unicode hex="0032"/>
  <outline>
    <contour>
      <point x="263" y="0" type="curve" smooth="yes"/>
      <point x="964" y="0" type="line" smooth="yes"/>
      <point x="1020" y="0"/>
      <point x="1048" y="47"/>
      <point x="1048" y="93" type="curve" smooth="yes"/>
      <point x="1048" y="139"/>
      <point x="1020" y="184"/>
      <point x="964" y="184" type="curve" smooth="yes"/>
      <point x="389" y="184" type="line"/>
      <point x="827" y="594" type="line"/>
      <point x="997" y="747"/>
      <point x="1065" y="886"/>
      <point x="1065" y="1035" type="curve" smooth="yes"/>
      <point x="1065" y="1257"/>
      <point x="883" y="1440"/>
      <point x="623" y="1444" type="curve" smooth="yes"/>
      <point x="432" y="1446"/>
      <point x="308" y="1388"/>
      <point x="194" y="1320" type="curve" smooth="yes"/>
      <point x="84" y="1256"/>
      <point x="195" y="1110"/>
      <point x="275" y="1151" type="curve" smooth="yes"/>
      <point x="357" y="1195"/>
      <point x="420" y="1256"/>
      <point x="592" y="1256" type="curve" smooth="yes"/>
      <point x="724" y="1256"/>
      <point x="835" y="1163"/>
      <point x="835" y="1019" type="curve" smooth="yes"/>
      <point x="835" y="935"/>
      <point x="792" y="853"/>
      <point x="695" y="756" type="curve" smooth="yes"/>
      <point x="177" y="235" type="line" smooth="yes"/>
      <point x="79" y="137"/>
      <point x="126" y="0"/>
    </contour>
  </outline>
</glyph>
<glyph name="three" format="1">
  <advance width="1203"/>
  <unicode hex="0033"/>
  <outline>
    <contour>
      <point x="575" y="-22" type="curve" smooth="yes"/>
      <point x="844" y="-22"/>
      <point x="1075" y="104"/>
      <point x="1075" y="388" type="curve" smooth="yes"/>
      <point x="1075" y="575"/>
      <point x="990" y="709"/>
      <point x="818" y="760" type="curve"/>
      <point x="952" y="818"/>
      <point x="1045" y="915"/>
      <point x="1045" y="1082" type="curve" smooth="yes"/>
      <point x="1045" y="1336"/>
      <point x="826" y="1472"/>
      <point x="565" y="1472" type="curve" smooth="yes"/>
      <point x="413" y="1472"/>
      <point x="259" y="1428"/>
      <point x="187" y="1380" type="curve" smooth="yes"/>
      <point x="102" y="1325"/>
      <point x="193" y="1171"/>
      <point x="272" y="1213" type="curve" smooth="yes"/>
      <point x="351" y="1255"/>
      <point x="462" y="1274"/>
      <point x="551" y="1274" type="curve" smooth="yes"/>
      <point x="672" y="1274"/>
      <point x="798" y="1213"/>
      <point x="798" y="1065" type="curve" smooth="yes"/>
      <point x="798" y="911"/>
      <point x="668" y="838"/>
      <point x="504" y="838" type="curve" smooth="yes"/>
      <point x="428" y="838" type="line" smooth="yes"/>
      <point x="374" y="838"/>
      <point x="351" y="793"/>
      <point x="351" y="750" type="curve" smooth="yes"/>
      <point x="351" y="708"/>
      <point x="373" y="663"/>
      <point x="428" y="663" type="curve" smooth="yes"/>
      <point x="511" y="663" type="line" smooth="yes"/>
      <point x="689" y="663"/>
      <point x="828" y="558"/>
      <point x="828" y="394" type="curve" smooth="yes"/>
      <point x="828" y="243"/>
      <point x="716" y="176"/>
      <point x="555" y="176" type="curve" smooth="yes"/>
      <point x="436" y="176"/>
      <point x="346" y="215"/>
      <point x="286" y="242" type="curve" smooth="yes"/>
      <point x="201" y="279"/>
      <point x="101" y="119"/>
      <point x="216" y="60" type="curve" smooth="yes"/>
      <point x="300" y="16"/>
      <point x="418" y="-22"/>
    </contour>
  </outline>
</glyph>
<glyph name="N" format="1">
  <advance width="1545"/>
  <unicode hex="004E"/>
  <outline>
    <contour>
      <point x="804" y="1438" type="move" name="top"/>
    </contour>
    <contour>
      <point x="802" y="0" type="move" name="bot"/>
    </contour>
    <contour>
      <point x="283" y="0" type="curve" smooth="yes"/>
      <point x="339" y="0"/>
      <point x="398" y="36"/>
      <point x="398" y="106" type="curve" smooth="yes"/>
      <point x="398" y="1057" type="line"/>
      <point x="1083" y="82" type="line" smooth="yes"/>
      <point x="1120" y="30"/>
      <point x="1189" y="0"/>
      <point x="1236" y="0" type="curve" smooth="yes"/>
      <point x="1310" y="0"/>
      <point x="1375" y="56"/>
      <point x="1375" y="151" type="curve" smooth="yes"/>
      <point x="1375" y="1328" type="line" smooth="yes"/>
      <point x="1375" y="1400"/>
      <point x="1318" y="1436"/>
      <point x="1262" y="1436" type="curve" smooth="yes"/>
      <point x="1206" y="1436"/>
      <point x="1148" y="1399"/>
      <point x="1148" y="1328" type="curve" smooth="yes"/>
      <point x="1148" y="370" type="line"/>
      <point x="458" y="1357" type="line" smooth="yes"/>
      <point x="420" y="1411"/>
      <point x="354" y="1435"/>
      <point x="305" y="1435" type="curve" smooth="yes"/>
      <point x="232" y="1435"/>
      <point x="170" y="1380"/>
      <point x="170" y="1284" type="curve" smooth="yes"/>
      <point x="170" y="106" type="line" smooth="yes"/>
      <point x="170" y="35"/>
      <point x="227" y="0"/>
    </contour>
  </outline>
</glyph>
<glyph name="Y" format="1">
  <advance width="1297"/>
  <unicode hex="0059"/>
  <outline>
    <contour>
      <point x="661" y="1438" type="move" name="top"/>
    </contour>
    <contour>
      <point x="522" y="121" type="line" smooth="yes"/>
      <point x="522" y="-40"/>
      <point x="770" y="-39"/>
      <point x="770" y="120" type="curve" smooth="yes"/>
      <point x="770" y="595" type="line"/>
      <point x="1209" y="1288" type="line" smooth="yes"/>
      <point x="1286" y="1410"/>
      <point x="1099" y="1499"/>
      <point x="1028" y="1383" type="curve" smooth="yes"/>
      <point x="659" y="780" type="line"/>
      <point x="300" y="1370" type="line" smooth="yes"/>
      <point x="213" y="1513"/>
      <point x="13" y="1385"/>
      <point x="86" y="1269" type="curve" smooth="yes"/>
      <point x="522" y="586" type="line"/>
    </contour>
  </outline>
</glyph>
<glyph name="f" format="1">
  <advance width="718"/>
  <unicode hex="0066"/>
  <outline>
    <contour>
      <point x="335" y="0" type="curve" smooth="yes"/>
      <point x="391" y="0"/>
      <point x="445" y="36"/>
      <point x="445" y="108" type="curve" smooth="yes"/>
      <point x="445" y="847" type="line"/>
      <point x="595" y="847" type="line" smooth="yes"/>
      <point x="648" y="847"/>
      <point x="672" y="880"/>
      <point x="672" y="918" type="curve" smooth="yes"/>
      <point x="672" y="953"/>
      <point x="648" y="989"/>
      <point x="595" y="989" type="curve" smooth="yes"/>
      <point x="445" y="989" type="line"/>
      <point x="445" y="1078" type="line" smooth="yes"/>
      <point x="445" y="1259"/>
      <point x="484" y="1278"/>
      <point x="578" y="1278" type="curve" smooth="yes"/>
      <point x="663" y="1278" type="line" smooth="yes"/>
      <point x="765" y="1278"/>
      <point x="759" y="1448"/>
      <point x="663" y="1448" type="curve" smooth="yes"/>
      <point x="538" y="1448" type="line" smooth="yes"/>
      <point x="358" y="1448"/>
      <point x="225" y="1357"/>
      <point x="225" y="1108" type="curve" smooth="yes"/>
      <point x="225" y="989" type="line"/>
      <point x="112" y="989" type="line" smooth="yes"/>
      <point x="58" y="990"/>
      <point x="33" y="953"/>
      <point x="33" y="918" type="curve" smooth="yes"/>
      <point x="33" y="881"/>
      <point x="58" y="848"/>
      <point x="112" y="847" type="curve" smooth="yes"/>
      <point x="225" y="847" type="line"/>
      <point x="225" y="108" type="line" smooth="yes"/>
      <point x="225" y="36"/>
      <point x="280" y="0"/>
    </contour>
  </outline>
</glyph>
<glyph name="sterling" format="1">
  <advance width="1376"/>
  <unicode hex="00A3"/>
  <outline>
    <contour>
      <point x="229" y="-1" type="curve" smooth="yes"/>
      <point x="1094" y="-1" type="line" smooth="yes"/>
      <point x="1164" y="-1"/>
      <point x="1164" y="186"/>
      <point x="1094" y="186" type="curve" smooth="yes"/>
      <point x="539" y="186" type="line"/>
      <point x="539" y="724" type="line"/>
      <point x="874" y="724" type="line" smooth="yes"/>
      <point x="949" y="724"/>
      <point x="936" y="887"/>
      <point x="876" y="887" type="curve" smooth="yes"/>
      <point x="539" y="887" type="line"/>
      <point x="539" y="989" type="line" smooth="yes"/>
      <point x="539" y="1201"/>
      <point x="561" y="1280"/>
      <point x="751" y="1280" type="curve" smooth="yes"/>
      <point x="836" y="1280"/>
      <point x="925" y="1263"/>
      <point x="1003" y="1248" type="curve" smooth="yes"/>
      <point x="1059" y="1237"/>
      <point x="1082" y="1393"/>
      <point x="1050" y="1404" type="curve" smooth="yes"/>
      <point x="972" y="1429"/>
      <point x="842" y="1455"/>
      <point x="729" y="1455" type="curve" smooth="yes"/>
      <point x="467" y="1455"/>
      <point x="310" y="1333"/>
      <point x="310" y="1068" type="curve" smooth="yes"/>
      <point x="310" y="887" type="line"/>
      <point x="194" y="887" type="line" smooth="yes"/>
      <point x="127" y="887"/>
      <point x="138" y="724"/>
      <point x="194" y="724" type="curve" smooth="yes"/>
      <point x="310" y="724" type="line"/>
      <point x="310" y="184" type="line"/>
      <point x="228" y="184" type="line" smooth="yes"/>
      <point x="163" y="184"/>
      <point x="163" y="-1"/>
    </contour>
  </outline>
</glyph>
<glyph name="logicalnot" format="1">
  <advance width="1320"/>
  <unicode hex="00AC"/>
  <outline>
    <contour>
      <point x="1092" y="233" type="curve" smooth="yes"/>
      <point x="1133" y="233"/>
      <point x="1174" y="259"/>
      <point x="1174" y="313" type="curve" smooth="yes"/>
      <point x="1174" y="726" type="line" smooth="yes"/>
      <point x="1174" y="767"/>
      <point x="1133" y="809"/>
      <point x="1090" y="809" type="curve" smooth="yes"/>
      <point x="223" y="809" type="line" smooth="yes"/>
      <point x="172" y="809"/>
      <point x="148" y="767"/>
      <point x="148" y="727" type="curve" smooth="yes"/>
      <point x="148" y="685"/>
      <point x="172" y="645"/>
      <point x="223" y="645" type="curve" smooth="yes"/>
      <point x="1010" y="645" type="line"/>
      <point x="1010" y="313" type="line" smooth="yes"/>
      <point x="1010" y="259"/>
      <point x="1050" y="233"/>
    </contour>
  </outline>
</glyph>
<glyph name="plusminus" format="1">
  <advance width="1320"/>
  <unicode hex="00B1"/>
  <outline>
    <contour>
      <point x="229" y="0" type="curve" smooth="yes"/>
      <point x="1091" y="0" type="line" smooth="yes"/>
      <point x="1144" y="0"/>
      <point x="1172" y="40"/>
      <point x="1172" y="80" type="curve" smooth="yes"/>
      <point x="1172" y="121"/>
      <point x="1146" y="160"/>
      <point x="1091" y="160" type="curve" smooth="yes"/>
      <point x="229" y="160" type="line" smooth="yes"/>
      <point x="175" y="160"/>
      <point x="149" y="121"/>
      <point x="149" y="80" type="curve" smooth="yes"/>
      <point x="149" y="40"/>
      <point x="175" y="0"/>
    </contour>
    <contour>
      <point x="658" y="233" type="curve" smooth="yes"/>
      <point x="700" y="233"/>
      <point x="741" y="260"/>
      <point x="741" y="311" type="curve" smooth="yes"/>
      <point x="741" y="534" type="line"/>
      <point x="1091" y="534" type="line" smooth="yes"/>
      <point x="1144" y="534"/>
      <point x="1172" y="575"/>
      <point x="1172" y="614" type="curve" smooth="yes"/>
      <point x="1172" y="656"/>
      <point x="1145" y="694"/>
      <point x="1091" y="694" type="curve" smooth="yes"/>
      <point x="741" y="694" type="line"/>
      <point x="741" y="919" type="line" smooth="yes"/>
      <point x="741" y="971"/>
      <point x="702" y="997"/>
      <point x="660" y="997" type="curve" smooth="yes"/>
      <point x="619" y="997"/>
      <point x="578" y="971"/>
      <point x="578" y="919" type="curve" smooth="yes"/>
      <point x="578" y="694" type="line"/>
      <point x="229" y="694" type="line" smooth="yes"/>
      <point x="175" y="694"/>
      <point x="149" y="655"/>
      <point x="149" y="614" type="curve" smooth="yes"/>
      <point x="149" y="575"/>
      <point x="175" y="534"/>
      <point x="229" y="534" type="curve" smooth="yes"/>
      <point x="578" y="534" type="line"/>
      <point x="578" y="311" type="line" smooth="yes"/>
      <point x="578" y="259"/>
      <point x="617" y="233"/>
    </contour>
  </outline>
</glyph>
<glyph name="paragraph" format="1">
  <advance width="1315"/>
  <unicode hex="00B6"/>
  <outline>
    <contour>
      <point x="605" y="-221" type="curve" smooth="yes"/>
      <point x="648" y="-221"/>
      <point x="691" y="-193"/>
      <point x="691" y="-139" type="curve" smooth="yes"/>
      <point x="691" y="1295" type="line"/>
      <point x="904" y="1295" type="line"/>
      <point x="904" y="-139" type="line" smooth="yes"/>
      <point x="904" y="-194"/>
      <point x="946" y="-221"/>
      <point x="989" y="-221" type="curve" smooth="yes"/>
      <point x="1032" y="-221"/>
      <point x="1074" y="-194"/>
      <point x="1074" y="-139" type="curve" smooth="yes"/>
      <point x="1075" y="1296" type="line" smooth="yes"/>
      <point x="1075" y="1367"/>
      <point x="1068" y="1436"/>
      <point x="943" y="1436" type="curve" smooth="yes"/>
      <point x="563" y="1436" type="line" smooth="yes"/>
      <point x="278" y="1436"/>
      <point x="116" y="1289"/>
      <point x="116" y="1062" type="curve" smooth="yes"/>
      <point x="116" y="865"/>
      <point x="290" y="696"/>
      <point x="519" y="696" type="curve"/>
      <point x="519" y="-139" type="line" smooth="yes"/>
      <point x="519" y="-194"/>
      <point x="562" y="-221"/>
    </contour>
  </outline>
</glyph>
<glyph name="ordmasculine" format="1">
  <advance width="1084"/>
  <unicode hex="00BA"/>
  <outline>
    <contour>
      <point x="527" y="735" type="curve" smooth="yes"/>
      <point x="802" y="735"/>
      <point x="925" y="922"/>
      <point x="925" y="1123" type="curve" smooth="yes"/>
      <point x="925" y="1324"/>
      <point x="802" y="1512"/>
      <point x="527" y="1512" type="curve" smooth="yes"/>
      <point x="253" y="1512"/>
      <point x="130" y="1324"/>
      <point x="130" y="1123" type="curve" smooth="yes"/>
      <point x="130" y="922"/>
      <point x="253" y="735"/>
    </contour>
    <contour>
      <point x="527" y="848" type="curve" smooth="yes"/>
      <point x="372" y="848"/>
      <point x="307" y="991"/>
      <point x="307" y="1122" type="curve" smooth="yes"/>
      <point x="307" y="1255"/>
      <point x="372" y="1398"/>
      <point x="527" y="1398" type="curve" smooth="yes"/>
      <point x="683" y="1398"/>
      <point x="747" y="1255"/>
      <point x="747" y="1124" type="curve" smooth="yes"/>
      <point x="747" y="991"/>
      <point x="683" y="848"/>
    </contour>
  </outline>
</glyph>
<glyph name="threequarters" format="1">
  <advance width="1698"/>
  <unicode hex="00BE"/>
  <outline>
    <contour>
      <point x="1040" y="271" type="line"/>
      <point x="1322" y="723" type="line"/>
      <point x="1322" y="271" type="line"/>
    </contour>
    <contour>
      <point x="598" y="-78" type="curve" smooth="yes"/>
      <point x="626" y="-78"/>
      <point x="653" y="-64"/>
      <point x="664" y="-30" type="curve" smooth="yes"/>
      <point x="1135" y="1353" type="line" smooth="yes"/>
      <point x="1138" y="1363"/>
      <point x="1140" y="1373"/>
      <point x="1140" y="1380" type="curve" smooth="yes"/>
      <point x="1140" y="1423"/>
      <point x="1104" y="1447"/>
      <point x="1068" y="1447" type="curve" smooth="yes"/>
      <point x="1040" y="1447"/>
      <point x="1011" y="1432"/>
      <point x="1000" y="1398" type="curve" smooth="yes"/>
      <point x="532" y="15" type="line" smooth="yes"/>
      <point x="529" y="5"/>
      <point x="527" y="-5"/>
      <point x="527" y="-12" type="curve" smooth="yes"/>
      <point x="527" y="-53"/>
      <point x="563" y="-78"/>
    </contour>
    <contour>
      <point x="1383" y="1" type="curve" smooth="yes"/>
      <point x="1413" y="1"/>
      <point x="1443" y="22"/>
      <point x="1443" y="64" type="curve" smooth="yes"/>
      <point x="1443" y="184" type="line"/>
      <point x="1520" y="184" type="line" smooth="yes"/>
      <point x="1554" y="184"/>
      <point x="1569" y="206"/>
      <point x="1569" y="228" type="curve" smooth="yes"/>
      <point x="1569" y="251"/>
      <point x="1553" y="272"/>
      <point x="1520" y="272" type="curve" smooth="yes"/>
      <point x="1443" y="272" type="line"/>
      <point x="1443" y="737" type="line" smooth="yes"/>
      <point x="1443" y="805"/>
      <point x="1407" y="838"/>
      <point x="1356" y="838" type="curve" smooth="yes"/>
      <point x="1311" y="838"/>
      <point x="1274" y="822"/>
      <point x="1242" y="764" type="curve"/>
      <point x="934" y="283" type="line" smooth="yes"/>
      <point x="926" y="271"/>
      <point x="922" y="257"/>
      <point x="922" y="242" type="curve" smooth="yes"/>
      <point x="922" y="209"/>
      <point x="948" y="184"/>
      <point x="991" y="184" type="curve" smooth="yes"/>
      <point x="1322" y="184" type="line"/>
      <point x="1322" y="64" type="line" smooth="yes"/>
      <point x="1322" y="22"/>
      <point x="1353" y="1"/>
    </contour>
    <contour>
      <point x="315" y="561" type="curve" smooth="yes"/>
      <point x="473" y="561"/>
      <point x="599" y="640"/>
      <point x="599" y="791" type="curve" smooth="yes"/>
      <point x="599" y="902"/>
      <point x="531" y="982"/>
      <point x="425" y="1005" type="curve"/>
      <point x="443" y="1085"/>
      <point x="581" y="1095"/>
      <point x="581" y="1195" type="curve" smooth="yes"/>
      <point x="581" y="1347"/>
      <point x="457" y="1428"/>
      <point x="309" y="1428" type="curve" smooth="yes"/>
      <point x="212" y="1428"/>
      <point x="69" y="1395"/>
      <point x="69" y="1335" type="curve" smooth="yes"/>
      <point x="69" y="1309"/>
      <point x="89" y="1285"/>
      <point x="121" y="1285" type="curve" smooth="yes"/>
      <point x="139" y="1285"/>
      <point x="228" y="1320"/>
      <point x="308" y="1320" type="curve" smooth="yes"/>
      <point x="389" y="1320"/>
      <point x="461" y="1275"/>
      <point x="461" y="1193" type="curve" smooth="yes"/>
      <point x="461" y="1101"/>
      <point x="384" y="1054"/>
      <point x="291" y="1052" type="curve" smooth="yes"/>
      <point x="251" y="1051" type="line" smooth="yes"/>
      <point x="217" y="1050"/>
      <point x="202" y="1027"/>
      <point x="202" y="1001" type="curve" smooth="yes"/>
      <point x="202" y="976"/>
      <point x="217" y="953"/>
      <point x="251" y="953" type="curve" smooth="yes"/>
      <point x="296" y="953" type="line" smooth="yes"/>
      <point x="396" y="953"/>
      <point x="474" y="891"/>
      <point x="474" y="796" type="curve" smooth="yes"/>
      <point x="474" y="710"/>
      <point x="412" y="667"/>
      <point x="315" y="667" type="curve" smooth="yes"/>
      <point x="237" y="667"/>
      <point x="163" y="702"/>
      <point x="132" y="705" type="curve" smooth="yes"/>
      <point x="97" y="708"/>
      <point x="76" y="684"/>
      <point x="76" y="657" type="curve" smooth="yes"/>
      <point x="76" y="595"/>
      <point x="235" y="561"/>
    </contour>
  </outline>
</glyph>
<glyph name="eth" format="1">
  <advance width="1218"/>
  <unicode hex="00F0"/>
  <outline>
    <contour>
      <point x="594" y="141" type="curve" smooth="yes"/>
      <point x="417" y="141"/>
      <point x="318" y="259"/>
      <point x="318" y="438" type="curve" smooth="yes"/>
      <point x="318" y="607"/>
      <point x="396" y="746"/>
      <point x="574" y="746" type="curve" smooth="yes"/>
      <point x="763" y="746"/>
      <point x="867" y="616"/>
      <point x="867" y="432" type="curve" smooth="yes"/>
      <point x="867" y="269"/>
      <point x="754" y="141"/>
    </contour>
    <contour>
      <point x="583" y="-34" type="curve" smooth="yes"/>
      <point x="992" y="-34"/>
      <point x="1135" y="272"/>
      <point x="1135" y="633" type="curve" smooth="yes"/>
      <point x="1135" y="765"/>
      <point x="1118" y="913"/>
      <point x="1082" y="1058" type="curve"/>
      <point x="1213" y="1058" type="line" smooth="yes"/>
      <point x="1259" y="1058"/>
      <point x="1281" y="1091"/>
      <point x="1281" y="1125" type="curve" smooth="yes"/>
      <point x="1281" y="1160"/>
      <point x="1260" y="1193"/>
      <point x="1213" y="1193" type="curve" smooth="yes"/>
      <point x="1036" y="1193" type="line"/>
      <point x="956" y="1384"/>
      <point x="855" y="1548"/>
      <point x="756" y="1548" type="curve" smooth="yes"/>
      <point x="677" y="1548"/>
      <point x="619" y="1465"/>
      <point x="673" y="1392" type="curve" smooth="yes"/>
      <point x="714" y="1336"/>
      <point x="770" y="1256"/>
      <point x="796" y="1193" type="curve"/>
      <point x="616" y="1193" type="line" smooth="yes"/>
      <point x="569" y="1193"/>
      <point x="547" y="1159"/>
      <point x="547" y="1124" type="curve" smooth="yes"/>
      <point x="547" y="1090"/>
      <point x="569" y="1058"/>
      <point x="616" y="1058" type="curve" smooth="yes"/>
      <point x="843" y="1058" type="line"/>
      <point x="881" y="959"/>
      <point x="897" y="788"/>
      <point x="889" y="707" type="curve"/>
      <point x="821" y="840"/>
      <point x="685" y="901"/>
      <point x="532" y="901" type="curve" smooth="yes"/>
      <point x="258" y="901"/>
      <point x="83" y="722"/>
      <point x="83" y="448" type="curve" smooth="yes"/>
      <point x="83" y="168"/>
      <point x="273" y="-34"/>
    </contour>
  </outline>
</glyph>
<glyph name="dotlessi" format="1">
  <advance width="504"/>
  <unicode hex="0131"/>
  <outline>
    <contour>
      <point x="253" y="991" type="move" name="top"/>
    </contour>
    <contour>
      <point x="250" y="0" type="curve" smooth="yes"/>
      <point x="305" y="0"/>
      <point x="362" y="38"/>
      <point x="362" y="109" type="curve" smooth="yes"/>
      <point x="362" y="890" type="line" smooth="yes"/>
      <point x="362" y="962"/>
      <point x="307" y="1000"/>
      <point x="252" y="1000" type="curve" smooth="yes"/>
      <point x="196" y="1000"/>
      <point x="142" y="962"/>
      <point x="142" y="890" type="curve" smooth="yes"/>
      <point x="142" y="109" type="line" smooth="yes"/>
      <point x="142" y="35"/>
      <point x="195" y="0"/>
    </contour>
  </outline>
</glyph>
<glyph name="tilde" format="1">
  <advance width="569"/>
  <unicode hex="02DC"/>
  <outline>
    <contour>
      <point x="293" y="1040" type="move" name="_top"/>
    </contour>
    <contour>
      <point x="16" y="1193" type="curve" smooth="yes"/>
      <point x="39" y="1193"/>
      <point x="62" y="1202"/>
      <point x="79" y="1228" type="curve" smooth="yes"/>
      <point x="100" y="1258"/>
      <point x="122" y="1277"/>
      <point x="153" y="1277" type="curve" smooth="yes"/>
      <point x="223" y="1277"/>
      <point x="316" y="1193"/>
      <point x="411" y="1193" type="curve" smooth="yes"/>
      <point x="510" y="1193"/>
      <point x="581" y="1260"/>
      <point x="594" y="1362" type="curve" smooth="yes"/>
      <point x="595" y="1382"/>
      <point x="581" y="1396"/>
      <point x="566" y="1398" type="curve"/>
      <point x="563" y="1412"/>
      <point x="552" y="1421"/>
      <point x="537" y="1421" type="curve" smooth="yes"/>
      <point x="481" y="1412"/>
      <point x="467" y="1335"/>
      <point x="418" y="1335" type="curve" smooth="yes"/>
      <point x="350" y="1335"/>
      <point x="258" y="1417"/>
      <point x="152" y="1417" type="curve" smooth="yes"/>
      <point x="48" y="1417"/>
      <point x="-11" y="1354"/>
      <point x="-33" y="1255" type="curve" smooth="yes"/>
      <point x="-36" y="1250"/>
      <point x="-36" y="1245"/>
      <point x="-36" y="1240" type="curve" smooth="yes"/>
      <point x="-36" y="1209"/>
      <point x="-13" y="1193"/>
    </contour>
  </outline>
</glyph>
<glyph name="Sigma" format="1">
  <advance width="1399"/>
  <unicode hex="03A3"/>
  <outline>
    <contour>
      <point x="316" y="-166" type="curve" smooth="yes"/>
      <point x="1162" y="-165" type="line" smooth="yes"/>
      <point x="1290" y="-165"/>
      <point x="1291" y="58"/>
      <point x="1162" y="58" type="curve" smooth="yes"/>
      <point x="396" y="58" type="line"/>
      <point x="855" y="503" type="line" smooth="yes"/>
      <point x="953" y="596"/>
      <point x="964" y="674"/>
      <point x="855" y="775" type="curve" smooth="yes"/>
      <point x="396" y="1217" type="line"/>
      <point x="1162" y="1217" type="line" smooth="yes"/>
      <point x="1291" y="1217"/>
      <point x="1290" y="1440"/>
      <point x="1162" y="1440" type="curve" smooth="yes"/>
      <point x="326" y="1440" type="line" smooth="yes"/>
      <point x="158" y="1440"/>
      <point x="64" y="1278"/>
      <point x="228" y="1119" type="curve" smooth="yes"/>
      <point x="713" y="640" type="line"/>
      <point x="228" y="145" type="line" smooth="yes"/>
      <point x="85" y="2"/>
      <point x="154" y="-166"/>
    </contour>
  </outline>
</glyph>
<glyph name="quotedblright" format="1">
  <advance width="1158"/>
  <unicode hex="201D"/>
  <outline>
    <contour>
      <point x="652" y="895" type="curve" smooth="yes"/>
      <point x="726" y="895" type="line" smooth="yes"/>
      <point x="755" y="894"/>
      <point x="771" y="906"/>
      <point x="782" y="938" type="curve" smooth="yes"/>
      <point x="954" y="1380" type="line" smooth="yes"/>
      <point x="959" y="1394"/>
      <point x="962" y="1433"/>
      <point x="920" y="1436" type="curve" smooth="yes"/>
      <point x="780" y="1436" type="line" smooth="yes"/>
      <point x="748" y="1435"/>
      <point x="715" y="1427"/>
      <point x="707" y="1380" type="curve" smooth="yes"/>
      <point x="628" y="938" type="line" smooth="yes"/>
      <point x="626" y="926"/>
      <point x="624" y="896"/>
    </contour>
    <contour>
      <point x="237" y="895" type="curve" smooth="yes"/>
      <point x="311" y="895" type="line" smooth="yes"/>
      <point x="340" y="894"/>
      <point x="356" y="906"/>
      <point x="367" y="938" type="curve" smooth="yes"/>
      <point x="539" y="1380" type="line" smooth="yes"/>
      <point x="544" y="1394"/>
      <point x="547" y="1433"/>
      <point x="505" y="1436" type="curve" smooth="yes"/>
      <point x="365" y="1436" type="line" smooth="yes"/>
      <point x="333" y="1435"/>
      <point x="300" y="1427"/>
      <point x="292" y="1380" type="curve" smooth="yes"/>
      <point x="213" y="938" type="line" smooth="yes"/>
      <point x="211" y="926"/>
      <point x="209" y="896"/>
    </contour>
  </outline>
</glyph>
<glyph name="foursuperior" format="1">
  <advance width="745"/>
  <unicode hex="2074"/>
  <outline>
    <contour>
      <point x="156" y="857" type="line"/>
      <point x="438" y="1310" type="line"/>
      <point x="438" y="857" type="line"/>
    </contour>
    <contour>
      <point x="499" y="587" type="curve" smooth="yes"/>
      <point x="529" y="587"/>
      <point x="559" y="608"/>
      <point x="559" y="651" type="curve" smooth="yes"/>
      <point x="559" y="771" type="line"/>
      <point x="636" y="771" type="line" smooth="yes"/>
      <point x="670" y="771"/>
      <point x="686" y="793"/>
      <point x="686" y="815" type="curve" smooth="yes"/>
      <point x="686" y="837"/>
      <point x="669" y="859"/>
      <point x="636" y="859" type="curve" smooth="yes"/>
      <point x="559" y="859" type="line"/>
      <point x="559" y="1324" type="line" smooth="yes"/>
      <point x="559" y="1391"/>
      <point x="523" y="1425"/>
      <point x="473" y="1425" type="curve" smooth="yes"/>
      <point x="426" y="1425"/>
      <point x="391" y="1408"/>
      <point x="358" y="1350" type="curve" smooth="yes"/>
      <point x="51" y="870" type="line" smooth="yes"/>
      <point x="42" y="857"/>
      <point x="38" y="843"/>
      <point x="38" y="829" type="curve" smooth="yes"/>
      <point x="38" y="795"/>
      <point x="65" y="771"/>
      <point x="107" y="771" type="curve" smooth="yes"/>
      <point x="438" y="771" type="line"/>
      <point x="438" y="651" type="line" smooth="yes"/>
      <point x="438" y="608"/>
      <point x="469" y="587"/>
    </contour>
  </outline>
</glyph>
<glyph name="summation" format="1">
  <advance width="1205"/>
  <unicode hex="2211"/>
  <outline>
    <contour>
      <point x="117" y="-200" type="curve" smooth="yes"/>
      <point x="1163" y="-200" type="line" smooth="yes"/>
      <point x="1221" y="-200"/>
      <point x="1250" y="-153"/>
      <point x="1250" y="-106" type="curve" smooth="yes"/>
      <point x="1250" y="-59"/>
      <point x="1221" y="-12"/>
      <point x="1163" y="-12" type="curve" smooth="yes"/>
      <point x="324" y="-12" type="line"/>
      <point x="843" y="645" type="line"/>
      <point x="367" y="1268" type="line"/>
      <point x="1127" y="1268" type="line" smooth="yes"/>
      <point x="1182" y="1268"/>
      <point x="1210" y="1312"/>
      <point x="1210" y="1355" type="curve" smooth="yes"/>
      <point x="1210" y="1398"/>
      <point x="1182" y="1442"/>
      <point x="1127" y="1442" type="curve" smooth="yes"/>
      <point x="147" y="1442" type="line" smooth="yes"/>
      <point x="79" y="1442"/>
      <point x="54" y="1405"/>
      <point x="54" y="1366" type="curve" smooth="yes"/>
      <point x="54" y="1341"/>
      <point x="63" y="1319"/>
      <point x="76" y="1302" type="curve" smooth="yes"/>
      <point x="600" y="618" type="line"/>
      <point x="51" y="-72" type="line" smooth="yes"/>
      <point x="39" y="-87"/>
      <point x="31" y="-108"/>
      <point x="31" y="-129" type="curve" smooth="yes"/>
      <point x="31" y="-165"/>
      <point x="53" y="-200"/>
    </contour>
  </outline>
</glyph>
<glyph name="minus" format="1">
  <advance width="750"/>
  <unicode hex="2212"/>
  <outline>
    <contour>
      <point x="127" y="442" type="curve" smooth="yes"/>
      <point x="618" y="442" type="line" smooth="yes"/>
      <point x="676" y="442"/>
      <point x="706" y="486"/>
      <point x="706" y="530" type="curve" smooth="yes"/>
      <point x="706" y="575"/>
      <point x="676" y="620"/>
      <point x="618" y="620" type="curve" smooth="yes"/>
      <point x="127" y="620" type="line" smooth="yes"/>
      <point x="67" y="620"/>
      <point x="38" y="576"/>
      <point x="38" y="531" type="curve" smooth="yes"/>
      <point x="38" y="487"/>
      <point x="69" y="442"/>
    </contour>
  </outline>
</glyph>
<glyph name="greaterequal" format="1">
  <advance width="1197"/>
  <unicode hex="2265"/>
  <outline>
    <contour>
      <point x="177" y="4" type="curve" smooth="yes"/>
      <point x="1024" y="4" type="line" smooth="yes"/>
      <point x="1067" y="4"/>
      <point x="1089" y="37"/>
      <point x="1089" y="70" type="curve" smooth="yes"/>
      <point x="1089" y="104"/>
      <point x="1067" y="137"/>
      <point x="1024" y="137" type="curve" smooth="yes"/>
      <point x="177" y="137" type="line" smooth="yes"/>
      <point x="134" y="137"/>
      <point x="113" y="105"/>
      <point x="113" y="71" type="curve" smooth="yes"/>
      <point x="113" y="38"/>
      <point x="134" y="4"/>
    </contour>
    <contour>
      <point x="173" y="261" type="curve" smooth="yes"/>
      <point x="183" y="261"/>
      <point x="194" y="263"/>
      <point x="204" y="268" type="curve" smooth="yes"/>
      <point x="1073" y="634" type="line" smooth="yes"/>
      <point x="1123" y="654"/>
      <point x="1145" y="690"/>
      <point x="1145" y="725" type="curve" smooth="yes"/>
      <point x="1145" y="763"/>
      <point x="1123" y="797"/>
      <point x="1075" y="817" type="curve" smooth="yes"/>
      <point x="202" y="1198" type="line" smooth="yes"/>
      <point x="191" y="1203"/>
      <point x="180" y="1205"/>
      <point x="170" y="1205" type="curve" smooth="yes"/>
      <point x="126" y="1205"/>
      <point x="96" y="1166"/>
      <point x="96" y="1127" type="curve" smooth="yes"/>
      <point x="96" y="1101"/>
      <point x="111" y="1076"/>
      <point x="142" y="1063" type="curve" smooth="yes"/>
      <point x="914" y="726" type="line"/>
      <point x="144" y="407" type="line" smooth="yes"/>
      <point x="111" y="392"/>
      <point x="97" y="366"/>
      <point x="97" y="340" type="curve" smooth="yes"/>
      <point x="97" y="300"/>
      <point x="128" y="261"/>
    </contour>
  </outline>
</glyph>
